
<global>
amp_veltrack=0
</global>

<group>
amp_veltrack=0
ampeg_decay=20
ampeg_release=0.35
ampeg_sustain=0
group_label=Group_0-42
lpc_hicc1=42
lpc_locc1=0

<region>
hikey=a3
hivel=127
lokey=g#3
lovel=1
lpc=jugtQrSLw8K08pZCMJgGwm6szkHAtn7BtTdsQGPqM8GqYmxBwlCnQIvoi8HKcT5BveB2wbS8oEHP8l/BhzxAQSzZOsGiPohAq1zFP9Kyvz4AwXbAAeErQVMZcMGdreBA
lpc_rms=-23.15
offset=3150
pitch_keycenter=a3
sample=Alto_scoop_PP_A3.opus
tune=+7
</region>

<region>
hikey=a4
hivel=127
lokey=g#4
lovel=1
lpc=YhphQiNhG8OC0itD2ZbiwjZyk0KcZ3PC/d5WQhyNQMKqRQVCqGwMwVAPQz3MeC/A4KGJv+fZD7+3EDpAuX40QbAposFNAE9BlaWcwMC1F8BQBhFBW3PAvyJKUcFQbRlB
lpc_rms=-21.40
offset=2154
pitch_keycenter=a4
sample=Alto_scoop_PP_A4.opus
tune=-28
</region>

<region>
hikey=b3
hivel=127
lokey=a#3
lovel=1
lpc=QC4DQjlBiMK7JDhCPTaZwZJSlEEYDnTBB3T7QGvuJsFoElZBTqEtwPMkwr+BxcLA9INDQK0WhkD2G6i/i3eMP1DerMAX7wFAe2GtP3Y4dUAzIAjBrpsMQepSzMDOThRA
lpc_rms=-27.19
offset=4120
pitch_keycenter=b3
sample=Alto_scoop_PP_B3.opus
tune=+21
</region>

<region>
hikey=b4
hivel=127
lokey=a#4
lovel=1
lpc=TWX4QQs+p8KzvrlCyOx0wmO3B0Jn9K3B2XmGQcPngMG68Y9BtFkcwYrfD8DBYehArk4WwenxwUDjL8y/Fm0LQJjaV8DEOY5AKlwawF8lsr7zwgY/x3ERQNrXusCws3lA
lpc_rms=-24.83
offset=5683
pitch_keycenter=b4
sample=Alto_scoop_PP_B4.opus
tune=-26
</region>

<region>
hikey=c#4
hivel=127
lokey=c4
lovel=1
lpc=WudRQtGE7cK9XblCEfIlwsBeuUED3dXAjaVQwLmgesBuQylB1ngGQcRMtcGzxhpBwU8JweQsqkEE5pjBsJ0pQcctC8Eun6g/pCLWQMVXK0CsZYrB5TGbQZiJGMEJEMI/
lpc_rms=-22.55
offset=483
pitch_keycenter=c#4
sample=Alto_scoop_PP_C#4.opus
tune=-1
</region>

<region>
hikey=c#5
hivel=127
lokey=c5
lovel=1
lpc=yp3RQeq1jMItVZxCFORRwh6uBULNHKzBDyUnQbo+JMF1pVxBznoWwBWTTMHVA2xBmUUzwZytOUG4gUbBovNHQYwPKsEJVgxB8r77wKiHu0DRDbzAraMbQTaiIcHRgpRA
lpc_rms=-24.57
offset=5275
pitch_keycenter=c#5
sample=Alto_scoop_PP_C#5.opus
tune=-25
</region>

<region>
hivel=127
key=d#3
lovel=1
lpc=vRQbQujQqMIczWRC+euEwSESS0H66AfBVspFPrzUkcDSxQZB293KQOmBjMHWgy5BISvlwJaoBkEqgg/BMPQhQSNC9cBOEpo/Q2CAQHg5nMB7Af8/fW5eQIcAvsCCXTJA
lpc_rms=-21.69
offset=6730
sample=Alto_scoop_PP_D#3.opus
tune=+2
</region>

<region>
hikey=d#4
hivel=127
lokey=d4
lovel=1
lpc=3pgdQgh3w8IYpr1CblJjwif8BEKTxp/BG0pTQc+7dMHQIqVBvGVlwY0VpUBjBBHBX4xQQbE71sCrFOm/xS7xQByuC8FphLJACDmKwMyhpkCxypXA1/p7QGNOhcD05yZA
lpc_rms=-24.60
offset=7694
pitch_keycenter=d#4
sample=Alto_scoop_PP_D#4.opus
tune=-20
</region>

<region>
hikey=d#5
hivel=127
lokey=d5
lovel=1
lpc=EaFZQZp1EMKVLCtCt6H3wXfAnUFFsXvBl7NTQYMvJ8HN6eZAvMQFvgSjwMD4EtNAVgmBwNSjeEBqzZTAzACiQBPEOsDInjbAG4bmQA7+rsARy4a72jyZQDx/m8AfwgxA
lpc_rms=-25.34
offset=5957
pitch_keycenter=d#5
sample=Alto_scoop_PP_D#5.opus
tune=-38
</region>

<region>
hikey=f3
hivel=127
lokey=e3
lovel=1
lpc=MdqRQQO3FsKAFt9B+Kt3wc56NUH7VonAFx0Tv8xHz7+a1aFAxpOHPreUpcCd7UxAp4xwwPWjokCVO1TAbI+CP66lhD+IMzfA2ttNQDXNur+NrrQ+3XgFv9Rhhb77kC0/
lpc_rms=-28.67
offset=6322
pitch_keycenter=f3
sample=Alto_scoop_PP_F3.opus
tune=+5
</region>

<region>
hikey=f4
hivel=127
lokey=e4
lovel=1
lpc=IkE+Qs9398KO7+1CcqBNwlPzT0EjR0LBWKirQXgT/cE9CMlBWK7VQP+n3sHse7NBT4hgwUaTBkGzoOzAkyx9QT6sfcGzB3e+w0o7QaEAMMHc1RxBR78AwDbIF8EQydhA
lpc_rms=-21.99
offset=12150
pitch_keycenter=f4
sample=Alto_scoop_PP_F4.opus
tune=-19
</region>

<region>
hikey=f5
hivel=127
lokey=e5
lovel=1
lpc=3m6TQf9VLML6ejpChVoHwpfqqUGQaRDB3YHWPySlZcB0pu5Ask7BvS4v5sAPp9ZApRa0wEC8t0D/RB7AqkJ6QI4e28AqP7hAxauLvVNOksCREOJAKULxwLwGokAqAHi+
lpc_rms=-23.64
offset=697
pitch_keycenter=f5
sample=Alto_scoop_PP_F5.opus
tune=-63
</region>

<region>
hikey=g3
hivel=127
lokey=f#3
lovel=1
lpc=BpctQnefxMJfWpxCF+Unwk3bAUKv7ZLBmTHuQERNQsEI/YBBxaydQOqhtcFcSYhB2+GHwW0EnEHW1DTBFry6QOrRcMAhBn2/3nTBQJpz78CSmntAtSN1vURhCcDgfss/
lpc_rms=-21.52
offset=4395
pitch_keycenter=g3
sample=Alto_scoop_PP_G3.opus
tune=+16
</region>

<region>
hikey=g4
hivel=127
lokey=f#4
lovel=1
lpc=N/eHQnoTNsM2djxDmqnjwpibmUI/w4rCgzB8QqDxhMI2iHhCchXuwYrH+kCbv57Aca+kwC9iakA5eYq/JCitQSdkEMJh5+NBa6+gwTWYnUGHv07BUD9vQSiuycGhylxB
lpc_rms=-19.83
offset=4931
pitch_keycenter=g4
sample=Alto_scoop_PP_G4.opus
tune=-22
</region>

<region>
hikey=B5
hivel=127
lokey=f#5
lovel=1
lpc=GsmAQc+9AsJYOf1BpIB/wQhOlECbBAQ/OhoGQIsgyMCrLUxBWyY6wQoJnkCs5iJAUuQWwCsV1j9C7Gu+RvZmPy+ZLL9ZYylAuAJ9v9wuxL3o5LQ+D6qAQNbjo8CzgnpA
lpc_rms=-20.82
offset=5493
pitch_keycenter=G5
sample=Alto_scoop_PP_G5.opus
tune=-63
</region>
</group>

<group>
amp_veltrack=0
ampeg_decay=20
ampeg_release=0.35
ampeg_sustain=0
group_label=Group_43-84
lpc_hicc1=84
lpc_locc1=43

<region>
hikey=a3
hivel=127
lokey=g#3
lovel=1
lpc=H93xQV+7ocJoIq9Cnf5Pwmn3pUHFqPHAL2GnQO9NUcGQ+JBBR16ZwPfmc8HwxMNBL3yqwSUhbEF2YznBjf5CQbGoRcFep6BAUDEPQJYPu8D9+ftAS+QOwMr4W8CzBwxA
lpc_rms=-15.36
offset=3331
pitch_keycenter=a3
sample=Alto_scoop_MF_A3.opus
tune=+4
</region>

<region>
hikey=a4
hivel=127
lokey=g#4
lovel=1
lpc=jmFyQQInHcKT5DJCqW4UwvcA+EER7rfBwnx0QeRhe8Fsc4hBU5cEwXhs8L9R8OpAcK9CwSkLVkFarRfB8U/JQMaGssBmBatADYSHwDFaL0BolrS/gh0QQOCoc8C0ugJA
lpc_rms=-14.94
offset=1220
pitch_keycenter=a4
sample=Alto_scoop_MF_A4.opus
tune=-16
</region>

<region>
hikey=B5
hivel=127
lokey=g#5
lovel=1
lpc=7s4LQXUpcsE8K0BBXg/mv+OiLcCr5PM/B+6pP3Rdjr9tEzBAiQ/9v1XAXz/EOQ9ArkMswJt/3j8LF6M+ioiQP1natr5HnfG+ei8iQDr17r62zEG/+SeAP7bkBz/IhMg9
lpc_rms=-17.36
offset=896
pitch_keycenter=A5
sample=Alto_scoop_MF_A5.opus
tune=-61
</region>

<region>
hikey=b3
hivel=127
lokey=a#3
lovel=1
lpc=OMeQQW+tKMJorBRCkt6YwQrWKEH5jZXAw+9Jv6ndmz7Duy0/fEilQIgBG8ETWqxAZbwwwEX/vkBV/ZzAJYQ7Pc1hCj9jF92/yVyYQDY5fMCT0/08QEWiQO2CsMAJ/+4/
lpc_rms=-21.60
offset=3362
pitch_keycenter=b3
sample=Alto_scoop_MF_B3.opus
tune=+14
</region>

<region>
hikey=b4
hivel=127
lokey=a#4
lovel=1
lpc=bR0JQZ2apsE55sJBILmlwV/QbkG8XhPBaejZQMyADcEAVSpBXebswLDQEkCwkok/0NsIwI8W1D+NgEC/EsYtv2OZVT9rObI/4JNLwJdmd0BjW2rAx+89QMTJxr/JEgQ/
lpc_rms=-18.87
offset=1253
pitch_keycenter=b4
sample=Alto_scoop_MF_B4.opus
tune=-7
</region>

<region>
hikey=c#4
hivel=127
lokey=c4
lovel=1
lpc=b0ijQcO1S8LIplNCaD0CwosRakF1RJDACc4zwAaVWUBRVie+4EaZQFiBLsGnfAJBO81VwAS7gkCdN43A6OWmP0l7or9g6T4+gD6BQL+2x8Dfp6pAOxrhvx44Lz/UFRy/
lpc_rms=-18.15
offset=6951
pitch_keycenter=c#4
sample=Alto_scoop_MF_C#4.opus
tune=-5
</region>

<region>
hikey=c#5
hivel=127
lokey=c5
lovel=1
lpc=MJCqQGaQHcE7Uh1BrHYIwciUykCf7jbAY/3uPvtbNb/qucQ/4tmsvxbFkT/+TXW/+EHTvnL7LkCWuVDAFEcbQF5Ezb/0JSE/z1vFPytHDMDp870/SAqVv9GwhT/9Xki9
lpc_rms=-17.66
offset=1182
pitch_keycenter=c#5
sample=Alto_scoop_MF_C#5.opus
tune=-15
</region>

<region>
hivel=127
key=d#3
lovel=1
lpc=v3cYQuhGuMKb1JtCYB4LwujooUGAdNnAOZ7ywOYe4L2MWjVBKGDCPuy6dsGfq1pBCL8Qwb6ZE0H1eQXBTtN0QHUrWr8tij3A9igSQU2DxcCZxao/3qUAP/10j8AKoVJA
lpc_rms=-17.55
offset=480
sample=Alto_scoop_MF_D#3.opus
tune=+6
</region>

<region>
hikey=d#4
hivel=127
lokey=d4
lovel=1
lpc=+S6gQRYOTMIXRlZCVdgVwt7a0kGng4HBgkLfQOOQ0sAPf8lAfOeGQDQnWsF/J0hBNSUNwfXFGEEiLxrBcmzbQLE6xMCEj01A0lclQF19U8DvFz8/mMNNP+dYkL8BYR0/
lpc_rms=-19.67
offset=6577
pitch_keycenter=d#4
sample=Alto_scoop_MF_D#4.opus
tune=-8
</region>

<region>
hikey=d#5
hivel=127
lokey=d5
lovel=1
lpc=InqjQLydKsEplzxBBScWwdBRvkAV7hfA7x/ZvpWkzz5gJOU/QTs5wN6DP0CAmxDAzdnFP0kagD5DOr+/hznjP/cygb8CAc292QqBPzjrvb9/NY4/ZU8MvffBub4Emxc/
lpc_rms=-18.74
offset=7423
pitch_keycenter=d#5
sample=Alto_scoop_MF_D#5.opus
tune=-36
</region>

<region>
hikey=f3
hivel=127
lokey=e3
lovel=1
lpc=LBGJQW5ZHcIX2gtCcwmnwfCPbEH9/LvAeIYkwOgMnb+ZKeFAY1kgwASKB8Cg8Bg/+Beiv8YTOUCWK4a+jScrwHwtJkAyRnLAlSeXQKKgS8A6gTNA9DKhvz4WD7/06Ao/
lpc_rms=-22.24
offset=5868
pitch_keycenter=f3
sample=Alto_scoop_MF_F3.opus
tune=+4
</region>

<region>
hikey=f4
hivel=127
lokey=e4
lovel=1
lpc=AnfsQYMdmsJgCaNC3NBIwiX1q0FFqL/Af2N0QK/VGMHQZSdBOKxCQJ0Vc8Gu019Bfe0PwfT1zEDVbeLAX2gcQcvhgMHYqaZBH45uwQsTt0AIXhFAkhixwOSWlz624AlA
lpc_rms=-15.92
offset=5585
pitch_keycenter=f4
sample=Alto_scoop_MF_F4.opus
tune=-3
</region>

<region>
hikey=f5
hivel=127
lokey=e5
lovel=1
lpc=LsmpQIaCG8G/cSFBaJ7nwEr/fECYhi2/0WKrv8GdyD8WPFw/24cTwHaF+T9//zC/Zcg4vhJZzT/B8RbAyTwpQLVoo7/JIFs/Q9LgvnDaRj9Y+m2/lqUCQJedJcDHe+Q/
lpc_rms=-15.86
offset=2445
pitch_keycenter=f5
sample=Alto_scoop_MF_F5.opus
tune=-46
</region>

<region>
hikey=g3
hivel=127
lokey=f#3
lovel=1
lpc=siYSQrSMt8Lp/qhCMuAvwtKq3UHinEnBFx69wIuTSMCoEItB4Q7ZvmzpksGvZIVBEBiJwcDWqkG6Y0rBNFSqQHZUFsHaNJpA6z6DQA0no8AcTNVAAG1fwFdbE8DsG7g/
lpc_rms=-14.96
offset=5010
pitch_keycenter=g3
sample=Alto_scoop_MF_G3.opus
tune=+1
</region>

<region>
hikey=g4
hivel=127
lokey=f#4
lovel=1
lpc=dE3JQeBWhsI+OJVCK+o5wp09lEGcUuHAzVkWQZsUj8GlCXtBCpg3QJ9Km8E2ksRBGPStwS7Tg0FQvmLBdm9MQXWkIsHPd7xAaWxVPsfywMDmmhpBAav5wIUMUUBLsN++
lpc_rms=-14.64
offset=6527
pitch_keycenter=g4
sample=Alto_scoop_MF_G4.opus
tune=-11
</region>

<region>
hikey=g5
hivel=127
lokey=f#5
lovel=1
lpc=yBAYQWJEg8HDrTRB8j/0v9/Pw7/HqE5A/ExswC0re0Cme8Q/4YycwOpWIkA7WIM/8KX3PgsFtb7f7X6/7qStP3Oe/T8VUNe/OnpGP0Ok4L/8g1lAVDCZvh/w5r/aYABA
lpc_rms=-15.30
offset=3598
pitch_keycenter=g5
sample=Alto_scoop_MF_G5.opus
tune=-59
</region>
</group>

<group>
amp_veltrack=0
ampeg_decay=20
ampeg_release=0.35
ampeg_sustain=0
group_label=Group_85-127
lpc_hicc1=127
lpc_locc1=85

<region>
hikey=a3
hivel=127
lokey=g#3
lovel=1
lpc=n71PQeGIAsI10A1CMom4wdITAEHa6XJA2/MNwVzQhkDeSWdAHmaTwLRPtL4GQJBATKnLwAhg3EBs7a3Ay6pfQG5wPMDsExc9SK+BQF0+mcAdKo1AfPqEwARkWUCJCLO/
lpc_rms=-13.86
offset=5811
pitch_keycenter=a3
sample=Alto_scoop_FF_A3.opus
tune=+14
</region>

<region>
hikey=a4
hivel=127
lokey=g#4
lovel=1
lpc=Jv8CQRyhk8F2JZZBWshowYk6K0GuFsfAHCliQG9srcDVi/5Ay1LRwPlRhEBTCLS/1esRwMUxokBDtJvAjowgQHCUvb+9ygNAQES1v6+HSj+q2pW/Oh6MPzbK/L4Ly4Q9
lpc_rms=-9.99
offset=5350
pitch_keycenter=a4
sample=Alto_scoop_FF_A4.opus
tune=-9
</region>

<region>
hikey=B5
hivel=127
lokey=g#5
lovel=1
lpc=LIvSQPjBO8FCXDNB6oXWwNEKhUApTRzAQZ3nP1mMi7+mPD9AZykowNexzD+kxgQ9lJghvlmijD7RhQ0/jZc5vy4E8j+meqy/3voKQIqk37+KlZk/8xRSPYQEPT7230c9
lpc_rms=-18.52
offset=726
pitch_keycenter=A5
sample=Alto_scoop_FF_A5.opus
tune=-63
</region>

<region>
hikey=b3
hivel=127
lokey=a#3
lovel=1
lpc=ugBBQdCC5sG1/N5BgdN5wfVA2EDYK1zAmNaZQAqDCsGsOgZBRvHWv6pIlMAX0IpAtppCPy0EhcABbFZA5fcGwF5uYj/jJH4+umELPzteBMAE99g/q2FgPzOQ2L97ziI/
lpc_rms=-19.63
offset=1731
pitch_keycenter=b3
sample=Alto_scoop_FF_B3.opus
tune=+20
</region>

<region>
hikey=b4
hivel=127
lokey=a#4
lovel=1
lpc=9oixQDavNsHQWDBBm8oDwVLqvUBcuVDAm4lgP2u3NL8dzCVAMPs/wC8EGkAy2qm/WHbjvnw79D9ALiHAX1XaP0USGb/5/Ag/J22pvhkxJz7ZcU++NA5ZP8azm7+pIUE/
lpc_rms=-12.25
offset=1535
pitch_keycenter=b4
sample=Alto_scoop_FF_B4.opus
tune=-10
</region>

<region>
hikey=c#4
hivel=127
lokey=c4
lovel=1
lpc=A2hcQY7SBMKaAQpCdSi8wfSsS0GabZPAtVQEPid/jb+p8GdAnHXrv2FpV7/W3O2+4dAkQM27wb/RvOy9armdPu6E0b9ON4Y/5spmP5PGZ79D0I4/oDymv1PT1D9IVWK/
lpc_rms=-14.74
offset=2157
pitch_keycenter=c#4
sample=Alto_scoop_FF_C#4.opus
</region>

<region>
hikey=c#5
hivel=127
lokey=c5
lovel=1
lpc=Xn6PQDwWBcEPNAhBR5XrwOrAtkDDKEvAKpKVP9OTjL9kUw1AHj4QwIoZqz/oki6/kcaNvm779z/AAkbAfAxFQNAQAsCXS8E/U+YNv0qTEb7HMmI+jYcMPqcHSL7nAdI+
lpc_rms=-13.38
offset=1179
pitch_keycenter=c#5
sample=Alto_scoop_FF_C#5.opus
tune=-15
</region>

<region>
hivel=127
key=d#3
lovel=1
lpc=f1mbQdEYUcJFQGpCZrwdwoGPl0EjnEbAv8qQwJwuRr+UFhxBQqPqwLq0d8CIdVJBqpCMwYefc0GxIejAdu5/P2+g4L920wxAVZ6FQDZX/MDPYdhAl8K3wInHXkB9D2a/
lpc_rms=-13.68
offset=1070
sample=Alto_scoop_FF_D#3.opus
</region>

<region>
hikey=d#4
hivel=127
lokey=d4
lovel=1
lpc=Z0DcQO+Wa8Gk5WRBYkstwZKeAEGaLKDAM73lP3gnqb8WahpA87arvwAPk73p7Jy+DjXVvqTfY0CqKrbAvzWzQNgwwcCPdcFAO5xYwLg0mT+qVU+/uffQPlo697vjoWY9
lpc_rms=-15.44
offset=2439
pitch_keycenter=d#4
sample=Alto_scoop_FF_D#4.opus
</region>

<region>
hikey=d#5
hivel=127
lokey=d5
lovel=1
lpc=Nz1mQD9O1MALIM9AFH6ZwM95cEBu+ETA4jwwQCNNY8BiLpVAayuGwF4uKUAaQ4a/U3g0P9HDPL7vkpW+OJMYP4MJ075VFuI+0NoEv0GGqz6fLTW+GnMBP2ptAL8DQvk+
lpc_rms=-14.52
offset=6518
pitch_keycenter=d#5
sample=Alto_scoop_FF_D#5.opus
tune=-23
</region>

<region>
hikey=f3
hivel=127
lokey=e3
lovel=1
lpc=nTYHQQQHmcGR3p1BeySMwUoejUFVBmrBJMATQaj07sAsb9RAD7sVwOmYXb/plQg/BFgWv6Se1T/JgOS/eoyfPwUc0b8jQwI/Z8MQQCa1IMAbvwNAW5whwE5wFUD3zF2/
lpc_rms=-16.86
offset=5484
pitch_keycenter=f3
sample=Alto_scoop_FF_F3.opus
tune=+10
</region>

<region>
hikey=f4
hivel=127
lokey=e4
lovel=1
lpc=NqdRQRpN9sGjlfZBr6SbwflxCkGB/i3AhyNEQOR+EsEUcltBDeQCwRemJb+QVKpAXXu+wH5gM0DlyIa+YhTgPoNdRMCjXJVAoRRFwPZiC0DfuWY9CXcwwFyHyz8Pr20+
lpc_rms=-12.80
offset=6590
pitch_keycenter=f4
sample=Alto_scoop_FF_F4.opus
tune=-9
</region>

<region>
hikey=f5
hivel=127
lokey=e5
lovel=1
lpc=GguOQFdX+MCn//VAH6+7wGSgj0DSPiHAUW/ZP4W/E8AjZFNAxp9twCeMO0C16kG/8aRYv2Li0z/1Bvi/tUoaQOnSx792aZM/sb5zvkgNRj1wxSS+4zJfP04F4L4lrL49
lpc_rms=-13.91
offset=1288
pitch_keycenter=f5
sample=Alto_scoop_FF_F5.opus
tune=-42
</region>

<region>
hikey=g3
hivel=127
lokey=f#3
lovel=1
lpc=9h6WQbE6PsJlCFhCQh8uwk7u6kHRg3LBoaLIQIScAMFqmm9BylVxwTs8HkEmB6fA6BH5P6iBrD7h+Xi/PTKAPlriXT/ytG3AeMK4QNR9XMA6yFdAN8qawLOYRkAlUWm/
lpc_rms=-9.75
offset=6597
pitch_keycenter=g3
sample=Alto_scoop_FF_G3.opus
tune=+8
</region>

<region>
hikey=g4
hivel=127
lokey=f#4
lovel=1
lpc=fuMyQQvFy8EnuLdBBIJCwSmrtUBZuGm+ro+GwOdEgL9DshdBfYUTwcsbsEA4mRLASY8owLkMxEC/T4fAL5sov/zTBEByyom/JicFQA8FAMCzPj4+A7A6PyFatL5SW1s9
lpc_rms=-9.71
offset=4008
pitch_keycenter=g4
sample=Alto_scoop_FF_G4.opus
tune=-18
</region>

<region>
hikey=g5
hivel=127
lokey=f#5
lovel=1
lpc=Yi76QMleRsHh+A1BfxXnvyzMYT5cH5s93voIvkCfTT6oT3dAuLVrwBLLcz0ufCNA3dTYPjBNJL/hN7W/C7VWQPl5rb+Zark/FxF0v/EhBb40lpo/Qv4MQE3vX8AtBjhA
lpc_rms=-13.39
offset=1101
pitch_keycenter=g5
sample=Alto_scoop_FF_G5.opus
tune=-43
</region>
</group>

<group>
amp_veltrack=0
ampeg_attack=2.5
ampeg_release=0.35
group_label=Sustain_0-42
lpc_hicc1=42
lpc_locc1=0
volume=-5

<region>
hivel=127
key=A#3
loop_end=266311
loop_mode=loop_continuous
loop_start=76199
loop_xfade=22759
lovel=0
lpc=UNBSQuS5D8MvUBdD9Fe2wglnXEJHchTCSPrYQei0GsJzdxtCC7ENwVdwXsFUUalBeFPtwRuOv0GDBDvBzWVlQYR8ksGlZFpBpjLQwLR/pL/vKeZAHnlFwDKqcMAQNjBA
lpc_rms=-19.91
offset=1616
sample=Alto_sustain_PP_A#3.opus
</region>

<region>
hivel=127
key=A#4
loop_end=270709
loop_mode=loop_continuous
loop_start=77458
loop_xfade=23135
lovel=0
lpc=rn4dQh4q+sJr6SxDIo0BwyJiHUKx0nZBjZbxwAyg3cGDQURCYt7vwUhCi8BwPF9B8DXPv0xuTcFS8KBBIKutwZnQh0HfK0zA5PcVwYBUVEETtTnB7JYWQarp+8AarnJA
lpc_rms=-18.38
offset=237
sample=Alto_sustain_PP_A#4.opus
</region>

<region>
hivel=127
key=A3
loop_end=263430
loop_mode=loop_continuous
loop_start=75375
loop_xfade=22513
lovel=0
lpc=vL2tQv95a8PWMnFD0zYJwweShkIUGQDCinjAQZFWPsJugoJC7ADxwWnDp8EgVBtCXLbcwUhfJUFt4ZvBUpMEQgz228HLNbBBLPV+wV6RR8DPjklBDCkjQW6+zsGnITdB
lpc_rms=-19.59
offset=1269
sample=Alto_sustain_PP_A3.opus
</region>

<region>
hivel=127
key=A4
loop_end=269436
loop_mode=loop_continuous
loop_start=77093
loop_xfade=23026
lovel=0
lpc=6+rKQg/sk8MmbLFDX8Vnw0uXvUKKjePBVsbuP4G0hcH7MjtCpxhuwDm4jsL8H55CO3v+wTxo9UAAKnjBD/2MQVuSqcCqRR7BrQq1QSPTmcHlcVbBhIk3QiOTO8L/hKFB
lpc_rms=-13.15
offset=629
sample=Alto_sustain_PP_A4.opus
</region>

<region>
hikey=B5
hivel=127
lokey=A5
loop_end=257908
loop_mode=loop_continuous
loop_start=73795
loop_xfade=22041
lovel=0
lpc=hPq7QaVKIcJv1f9BuU1VwQCNMkFXhBDB1Vu/QDsui8D6M7NAeC2dQCScA8F4QipAIo0RQOril0AjxTPAuyBjwNNur0BQ+3O+zDvUQAdwEcHPp5JA9eSgvqt650B2SJvA
lpc_rms=-26.39
offset=127
pitch_keycenter=A5
sample=Alto_sustain_PP_A5.opus
</region>

<region>
hivel=127
key=B3
loop_end=278050
loop_mode=loop_continuous
loop_start=79558
loop_xfade=23762
lovel=0
lpc=QRY8Qi27+MIdx/dC6e9rwh06q0G8faHBKOKWQXTYksGtNoZBPHeIQOwstcHmtpRBVT01wX0s4kC7+aG/zsE1P/9AQ8G0jqZBQQQjwf+JEsDWNnZAQ9PsPkxHo78rG6K+
lpc_rms=-21.33
offset=123
sample=Alto_sustain_PP_B3.opus
</region>

<region>
hivel=127
key=B4
loop_end=271403
loop_mode=loop_continuous
loop_start=77656
loop_xfade=23194
lovel=0
lpc=cA/DQRNzj8L1Db1CT/OawgDnMEKpbIrBeXEZQefajcFk7s5B2g+XwTa5oj/xLUNBd696wVdOL0E7W8bAnLu9QPCTqcDOpzpA2Xv+vkGZxb6gepW+hvgQQC4nPsC5p8g/
lpc_rms=-18.62
offset=110
sample=Alto_sustain_PP_B4.opus
</region>

<region>
hivel=127
key=C#4
loop_end=281412
loop_mode=loop_continuous
loop_start=80520
loop_xfade=24050
lovel=0
lpc=Gso0Qkfi/8IeVRNDkO6zwo+WDkJditDBxnwPQjz2J8I81BdCPG0lwe3b0MHJHyBCbN77wd2uoUEwsoPB+vKDQXoSl8F8fpJBkoRWwf0hUUHT4mLB1CopQbHUL8CnPSy/
lpc_rms=-19.29
offset=22719
sample=Alto_sustain_PP_C#4.opus
</region>

<region>
hivel=127
key=C#5
loop_end=269715
loop_mode=loop_continuous
loop_start=77173
loop_xfade=23050
lovel=0
lpc=uC5OQWmFCMKsvyZCUf4IwiD++kHEnwzCXlEEQkjNw8FX/IxBlM02wY/emkCpSQrAK+0lQDY78r9CLn4/ngZrwFSNEkFLax3BI5/BQGi0XsAuqF1AkBoOwLWTiD3CKnk/
lpc_rms=-19.31
sample=Alto_sustain_PP_C#5.opus
</region>

<region>
hivel=127
key=C4
loop_end=277851
loop_mode=loop_continuous
loop_start=79501
loop_xfade=23745
lovel=0
lpc=wOFfQsEdGcPlHBhDOImDwuyGlEGbpjjB5ubivxW5pEAkRldAk6QRQb/vvcFc9GZBkPnTwEsd90Cm783AX/u8QFkYscA0dDVAGLzYvwCx6UCyHFzB2t9/Qfe3Q8EOLoVA
lpc_rms=-21.40
offset=55
sample=Alto_sustain_PP_C4.opus
</region>

<region>
hivel=127
key=C5
loop_end=271349
loop_mode=loop_continuous
loop_start=77641
loop_xfade=23190
lovel=0
lpc=3Q7FQYO9l8LdxMlCyVCVwlmGH0IoqvHBxxrfQWRdn8F1GJNB6rxwwTqtD8CaIpFBnzaKwTnSDUFTenXARiGUP5tP9D9nFY2/3sqtPgM4qsBjmRBBEIOdwDPx3r8SYihA
lpc_rms=-18.28
sample=Alto_sustain_PP_C5.opus
</region>

<region>
hivel=127
key=D#3
loop_end=241785
loop_mode=loop_continuous
loop_start=69182
loop_xfade=20663
lovel=0
lpc=Nmc8QqgF1cKyaa1CGtgYwlFUoEENm6XBv5m+QbhF2cFnq65BNpVewBeqCMH6BrdApYKIv1XtmD1HoAXAghAKQSkYEcHLZExAMoBcQGw7KMHbUUlBwDm5wMwgOr82Eng/
lpc_rms=-22.07
offset=3483
sample=Alto_sustain_PP_D#3.opus
</region>

<region>
hivel=127
key=D#4
loop_end=257829
loop_mode=loop_continuous
loop_start=73772
loop_xfade=22034
lovel=0
lpc=Ht4LQlRMzcIBjv9CrjDIwpX0h0IJYDnCrAkMQpjrHcLT8DNCmb3awZkn3r820n9BR2BtwTW7HEFQwNbASbPnQCQhMMEXN1pB2YIswalIIUCzmFtAz/kjQHKSFsFQdZ9A
lpc_rms=-21.10
offset=148
sample=Alto_sustain_PP_D#4.opus
</region>

<region>
hivel=127
key=D#5
loop_end=251803
loop_mode=loop_continuous
loop_start=72048
loop_xfade=21519
lovel=0
lpc=PHLCQQH1d8Lq1YtCWnYkwpcHi0ESN33BzM6OQQVFhMFq8z5BmUq1QGR3zMEEP85ByTOtwCi+18A29Y9A10nPPvrWAz85mfO/P10eQIokv8BP0JhAZbfLQCz6R8FzBPRA
lpc_rms=-22.48
sample=Alto_sustain_PP_D#5.opus
</region>

<region>
hivel=127
key=D4
loop_end=262386
loop_mode=loop_continuous
loop_start=75076
loop_xfade=22424
lovel=0
lpc=LccvQoz678Ip7wxDyA3NwsdydUKXVhTCO+nWQbLzG8LnpW9CPBFXwqcBq0EwEZVAAsWJwWd3sUH7przBgmy/QZCyysFFSZ9BLkbRwDpD4T87X6K9vfSrwMHiyUDJzeC/
lpc_rms=-17.76
offset=29
sample=Alto_sustain_PP_D4.opus
</region>

<region>
hivel=127
key=D5
loop_end=267785
loop_mode=loop_continuous
loop_start=76621
loop_xfade=22885
lovel=0
lpc=3KxnQTSdH8KCqj1CDej8wdNyjUEls5PBLrCuQe17lsFVSlpBCm1qwIiJBcHVSy5BqdCJwM5mbj9ij1LARdK+QEooB8HzNhxB64y1wNMBUUCmXADB7SpXQbu9N8FeYY1A
lpc_rms=-19.36
offset=90
sample=Alto_sustain_PP_D5.opus
</region>

<region>
hivel=127
key=E3
loop_end=256652
loop_mode=loop_continuous
loop_start=73436
loop_xfade=21934
lovel=0
lpc=1ocsQq35r8LN3XhComH9wZPKt0GKiITBKrVcQZLbhMHTJ5ZBZ218wOldE8EMeuhApTqQwDV7w0CwXRTB0vBKQRgjVcE5G0RBDFIWwRikskB7h3bAwkBQQJDOlb+wYCa+
lpc_rms=-23.32
offset=2427
sample=Alto_sustain_PP_E3.opus
</region>

<region>
hivel=127
key=E4
loop_end=257116
loop_mode=loop_continuous
loop_start=73568
loop_xfade=21973
lovel=0
lpc=jiCGQbS9PMKqbGtChwswwh6yrkHu1OnA2x2lP2FCIcB1H8pA4CUSwHiI08DuQzJBR1UZwRyMu0DpIdfAbs4RQatt68CVvppAgLXvv1o/4r8Tk39A5mHiv3l0lL/dfTE/
lpc_rms=-25.39
sample=Alto_sustain_PP_E4.opus
</region>

<region>
hivel=127
key=E5
loop_end=252148
loop_mode=loop_continuous
loop_start=72147
loop_xfade=21549
lovel=0
lpc=+HlVQa6bCcIVsTRCkYgZwvXGukF9f0/BgXgtQVSQGMF6nc9AJbLUv8Dqvr8lllVAEj2OwLvrrkAQ+O3A8g0hQeZgF8FRK7dAqv8rQH66CsFutAVB6mphwOGqlb+b9hBA
lpc_rms=-18.25
offset=966
sample=Alto_sustain_PP_E5.opus
</region>

<region>
hivel=127
key=F#3
loop_end=258082
loop_mode=loop_continuous
loop_start=73845
loop_xfade=22056
lovel=0
lpc=GmqRQpShNcPJaCJDGGKMwgMHnkEIFq/AInotQYq4+cHpxjNCt7JEwW/bz8G5P+BBrJeywUImZEE3Tk/Bi2CiQYOXO8Ewj+3AlTpQQekh78DWOEZBSh0owcW/K8CI/GhA
lpc_rms=-18.70
offset=4935
sample=Alto_sustain_PP_F#3.opus
</region>

<region>
hivel=127
key=F#4
loop_end=273066
loop_mode=loop_continuous
loop_start=78132
loop_xfade=23336
lovel=0
lpc=BtlaQq+hOcM20YxDOs6Iw7HOWkNHzC7DSD4LQ45j4cKZN9FC1FKiwk7uBEJDdYDA7/IDQdcclME/31BBIHFpQF8mnsHutQJC87Evwh4NRkJc/iTCMp3DQXBALsF4zD9A
lpc_rms=-15.05
offset=441
sample=Alto_sustain_PP_F#4.opus
</region>

<region>
hivel=127
key=F#5
loop_end=271097
loop_mode=loop_continuous
loop_start=77569
loop_xfade=23168
lovel=0
lpc=vM4KQqsqkcKYU4NCzWzWwWZQ4EC99dvAUHM4QXpg4MAC5VZAE+AUQFZvDsBIc1pAeZrUwPZ7+kD2o0BAkqfywOwchEBoZYtADKlFPrO99cClHilABIuLQTw6xME+G29B
lpc_rms=-20.87
sample=Alto_sustain_PP_F#5.opus
</region>

<region>
hivel=127
key=F3
loop_end=264875
loop_mode=loop_continuous
loop_start=75788
loop_xfade=22637
lovel=0
lpc=fd24QcvHTMJKoiBC3hFpwd0zq0Bj6bHAfTvlQISoK8FLYypBTdFkv+9ws8B2wXFAW5inwIqF50CtQ6XAAldUQL8dzb9oCfi9S82Wv88RN0DbGqy/65g8PqJ2Q794kXQ/
lpc_rms=-24.76
offset=3577
sample=Alto_sustain_PP_F3.opus
</region>

<region>
hivel=127
key=F4
loop_end=269459
loop_mode=loop_continuous
loop_start=77100
loop_xfade=23028
lovel=0
lpc=c+ZdQtzzMsOu+3ZDkG9Cw1muw0ItQBDCHIePQVOV1sGPKBVCI15YwW60ysGHG+1Bqxq1wPm27sB5rc0/d4sCQNcWr75E/DVAcp58v6iy9cCMp1VBej9kwdH1EkEjefG/
lpc_rms=-15.69
offset=1313
sample=Alto_sustain_PP_F4.opus
</region>

<region>
hivel=127
key=F5
loop_end=269329
loop_mode=loop_continuous
loop_start=77063
loop_xfade=23017
lovel=0
lpc=l+SXQXfHIMJyeCNCij/jwTLNuEG72bvBWA22QXGKlMFCpXNBgAbywPRGmr4AJadAyMHCwHw/k0DA4GzAN424QByIbsAdmWFATJvfv2bznb9y5BhAhOwbP93dMMA3EU9A
lpc_rms=-19.70
offset=536
sample=Alto_sustain_PP_F5.opus
</region>

<region>
hivel=127
key=G#3
loop_end=256467
loop_mode=loop_continuous
loop_start=73383
loop_xfade=21918
lovel=0
lpc=acF2Qsk2LcOiKDhDjIO4wlbryUFVkELBADBJQagHk8EdMa9BlRwVQftGNMJEtCBCe8eJwa/izz8/esJAZJn9wB3EwT/o1ChApRAbQS4CmcFJBXFBjTHEwCaqWr9AD68/
lpc_rms=-20.36
offset=491
sample=Alto_sustain_PP_G#3.opus
</region>

<region>
hivel=127
key=G#4
loop_end=273352
loop_mode=loop_continuous
loop_start=78214
loop_xfade=23361
lovel=0
lpc=05I0QimYEcN8W1ZDmlZLw8yKEkOLnKjCubwXQi2WtMF08uZBbqSgwZzU6sBtmaxBRkF6wRvZukCReqDAdf6rQW9eGcJU6QxCYzthwRHdT8ELSelB1BPHwSctEEFkfAU+
lpc_rms=-13.56
offset=323
sample=Alto_sustain_PP_G#4.opus
</region>

<region>
hivel=127
key=G#5
loop_end=255359
loop_mode=loop_continuous
loop_start=73066
loop_xfade=21823
lovel=0
lpc=2no0QjhxkMKnf0xCjCZrv5nkKMHoPvtAoZcMQFtSrkBnQhPBcD+LQbAALsCBC+XACGBJQcH1wz+MbyLAt6uUQH2rvUCrtpHAt179P0qNZ0H2KzPB4o75QAhsNcDtrCtB
lpc_rms=-18.68
offset=35
sample=Alto_sustain_PP_G#5.opus
</region>

<region>
hivel=127
key=G3
loop_end=270105
loop_mode=loop_continuous
loop_start=77285
loop_xfade=23083
lovel=0
lpc=2YOCQplUKcNK2yBDCHKUwoxLh0EdJek/blwyQeg9EcJsHBdC8OPdwB20vcGK7w5CqeXzwRn6u0GBYsbBq57GQbGKfsHgojG/+j7rQEfhJMBSi/2/KowwQSWvccGQ8sRA
lpc_rms=-18.13
offset=5142
sample=Alto_sustain_PP_G3.opus
</region>

<region>
hivel=127
key=G4
loop_end=260037
loop_mode=loop_continuous
loop_start=74404
loop_xfade=22223
lovel=0
lpc=fGvtQnYlmcMI1Y1D62MPw4Rat0IhD3rCZSTrQWatEsIPRSxCP9CkQSoFh8KD2AdC2KuLwTkXZEFvbea/KR1kQL7vX0HlkN3Btn+1QRN4O8FgyY7BQclLQkJNYcKnIcZB
lpc_rms=-19.62
offset=381
sample=Alto_sustain_PP_G4.opus
</region>

<region>
hivel=127
key=G5
loop_end=273242
loop_mode=loop_continuous
loop_start=78183
loop_xfade=23351
lovel=0
lpc=0oA3QllOocJ8P4ZC8BbywVybm0Gi1IXBWLxoQbklhr5T742+xF/2P/L7hMBYiiZBBOWvv5bfHr8tCUu/r5AKQVftn8DA4Z1AOuaYPo/8ZEAXpvXAhpCHQWjPccGYxlRB
lpc_rms=-17.76
sample=Alto_sustain_PP_G5.opus
</region>
</group>

<group>
amp_veltrack=0
ampeg_attack=2.5
ampeg_release=0.35
group_label=Sustain_43-84
lpc_hicc1=84
lpc_locc1=43
volume=-5

<region>
hivel=127
key=A#3
loop_end=272913
loop_mode=loop_continuous
loop_start=78088
loop_xfade=23323
lovel=0
lpc=Pe7oQYcOmcJJ8JpCeOwWwjBXZEEie5bB+aDmQe4IBcKPALxBmBx3P0hjccFP+MlAV0yhQOQz/MCjLfNA06FfwGYYj79rbh/AHGfcQIhP18CCT/xAGiUFwTZ9kEDJqwG/
lpc_rms=-14.59
offset=3853
sample=Alto_sustain_MF_A#3.opus
</region>

<region>
hivel=127
key=A#4
loop_end=265347
loop_mode=loop_continuous
loop_start=75923
loop_xfade=22677
lovel=0
lpc=i+MmQdPh0cH5a/FBC2K5wfZtfUFO13jB9PSaQekSqcGmJYtB3Ui0wA+uLsDkxxtAoVYZPuTszL/Aa9a9WH1KQCs8oMAJnmJAZPopP9QT3L90bxo/VH1/PpWkb7+HbiA/
lpc_rms=-15.82
offset=581
sample=Alto_sustain_MF_A#4.opus
</region>

<region>
hivel=127
key=A3
loop_end=268293
loop_mode=loop_continuous
loop_start=76766
loop_xfade=22929
lovel=0
lpc=GAIZQvKvzMJ1MNRCW4N/wiZcG0JI9NLBLLKIQWfEv8EYWudBXIO9wN80kcFn2JdBDbtTwYN9J0GZAOjAqPn7QDA8XcHvcUVB/pYbwDey5cBinjxB2kaVwGJ4e8AvlTJA
lpc_rms=-15.12
offset=1500
sample=Alto_sustain_MF_A3.opus
</region>

<region>
hivel=127
key=A4
loop_end=279231
loop_mode=loop_continuous
loop_start=79896
loop_xfade=23863
lovel=0
lpc=cxSbQdVxUcLgzIFCQUlqwoX/RkLgbDPCHEU5QsLLSsKm1TVCrhu/wchQTUBE/LhAubPGwAz3u0C9MiHBmcSHQdsTtMHFCJtBUcv5wJmnir8rsEpAW9Ozv7yamb+I6aI/
lpc_rms=-11.47
offset=396
sample=Alto_sustain_MF_A4.opus
</region>

<region>
hikey=B5
hivel=127
lokey=A5
loop_end=254927
loop_mode=loop_continuous
loop_start=72942
loop_xfade=21786
lovel=0
lpc=lWJmQS9HiMHMrV1B/f0awHRelz/OSkpALKErP+yr1b/xBPhAyjNKwCPtMkC4IDFAOTjPvyTyj0DF42k/k6bdvuzdcEBqRWS9qnnhP0EpkkApooLAQlO6QL8qsr+Y7JZA
lpc_rms=-20.05
pitch_keycenter=A5
sample=Alto_sustain_MF_A5.opus
</region>

<region>
hivel=127
key=B3
loop_end=278102
loop_mode=loop_continuous
loop_start=79573
loop_xfade=23767
lovel=0
lpc=ZFSTQRUVK8IS8hZC1N2ZwcwCN0EPh/bAL7uEQFnf6cDt2wdBrxBXP+6aDMHB9sxAWk2RwFZy+UCHVv3Aq2mPQG5Nlr+2FArA1dN0QE6RP8ABxAU+aFlIQJjwwb9A+MW+
lpc_rms=-19.05
offset=492
sample=Alto_sustain_MF_B3.opus
</region>

<region>
hivel=127
key=B4
loop_end=252071
loop_mode=loop_continuous
loop_start=72125
loop_xfade=21542
lovel=0
lpc=M7jtQETbeMGPGHdBvD1GwV5aFUEBiLLA+Q2QQMyR3sCelQ1BvVHLwMyaFkC1PFu/KbGdPxMO97/ISGpAjTCbwGmDUUDmswfA0XNDQMZVV8B0T1NA7cgtwEBN4j82w5++
lpc_rms=-13.91
offset=403
sample=Alto_sustain_MF_B4.opus
</region>

<region>
hivel=127
key=C#4
loop_end=272795
loop_mode=loop_continuous
loop_start=78054
loop_xfade=23313
lovel=0
lpc=H6L5QfMmpsIAa7hCBP9iwjqFmUGgl2zALpIBQW5mk8FiPo1BdQKHwPdkDsEdRGFBXTo1wRgdAkFY1DTB5F+BQVkcj8GPfXxBnDY5wUxhu0DzlC3ANJEMQKCkGEDSGijA
lpc_rms=-17.32
offset=410
sample=Alto_sustain_MF_C#4.opus
</region>

<region>
hivel=127
key=C#5
loop_end=269705
loop_mode=loop_continuous
loop_start=77170
loop_xfade=23049
lovel=0
lpc=9ZrVQAL2VMHK+GlB6f06wUxzAUH2NpDAdLPIPy3BQr/Q65g/KR81vzwJnT5jNty9tsaTvzNsHUALCh/ApPR1PzTtkD9+/Q7ASK87QBVK37/+Gic/zOWbPlcJ5r7KEkc/
lpc_rms=-15.75
sample=Alto_sustain_MF_C#5.opus
</region>

<region>
hivel=127
key=C4
loop_end=277639
loop_mode=loop_continuous
loop_start=79441
loop_xfade=23727
lovel=0
lpc=f4LsQX9UnsLJgKFCqAsgwjhShUEv84vBtVeVQbtAkcFK+1tBIiJSQKj+jMEZYWJBeVUCwW1J/kBTP9XAyNQHQY+zW8FGoh5B81pUQNiYHsG3eYhA2XGZPzSK874qJC6+
lpc_rms=-19.12
offset=434
sample=Alto_sustain_MF_C4.opus
</region>

<region>
hivel=127
key=C5
loop_end=272442
loop_mode=loop_continuous
loop_start=77954
loop_xfade=23283
lovel=0
lpc=Qd8AQU+so8GrKMlBb1itwdPodUEnPQnBogeQQLjgv8BOtRhB6EMCweJ8dEDeKTm/SZqhv/pEB0BMJP+/kqwEQM7Xhb/8c1a+kkKUP/qnxb8P6Ug/3aGCP49eGMCE/sg/
lpc_rms=-15.35
offset=73
sample=Alto_sustain_MF_C5.opus
</region>

<region>
hivel=127
key=D#3
loop_end=264747
loop_mode=loop_continuous
loop_start=75752
loop_xfade=22625
lovel=0
lpc=hIF8QhWaLcO7FDBD1l+8wqdVUkKCf/fBGwhEQNtw08BQMu1BTF0EwW5jC8KuLPVBTslLwWJykUHHjYLB1NS+QPsQOMGkK3RB/gfsQDsVucHU9mlBAW/UwDA8bT/wUd8/
lpc_rms=-17.56
offset=9205
sample=Alto_sustain_MF_D#3.opus
</region>

<region>
hivel=127
key=D#4
loop_end=275402
loop_mode=loop_continuous
loop_start=78801
loop_xfade=23536
lovel=0
lpc=YSq0QdNEgMIW3pxCjrFcwnUGvEGNvHvAoSFtv/uFicC9taxA1PDwQEMCqMHDNZpBMm34wNH7GcA3gw1BGtEWwY/ruUAU8pbAMPh1QMgYIMDM5GRAP+hAwOzHfj84Kj88
lpc_rms=-18.88
offset=138
sample=Alto_sustain_MF_D#4.opus
</region>

<region>
hivel=127
key=D#5
loop_end=246523
loop_mode=loop_continuous
loop_start=70537
loop_xfade=21068
lovel=0
lpc=5HSIQEt0AsH7mAdBWGTJwFpqkkBYIELAa57hP1gcIMDtM3tABI1OwLClrD/1wIA+2L24vwf8L0BYISHAmcjdPxcRRr9jH4o9t7imPt8+5z6NO5i/6OCCP0zZdL3Oyzk+
lpc_rms=-16.39
offset=54
sample=Alto_sustain_MF_D#5.opus
</region>

<region>
hivel=127
key=D4
loop_end=278565
loop_mode=loop_continuous
loop_start=79706
loop_xfade=23806
lovel=0
lpc=/fn9Qa/nssJXtuNCdD24wv81cEIG7SPC9oLkQd0vnMGf+khBRzeKQIIOy8GnZfhBpD7YwchxtEEOGJ3BvbyWQe73isGQXj9B2LqQwPDQ4z7MFl9AicICwV+8+EA4lg/A
lpc_rms=-15.26
offset=337
sample=Alto_sustain_MF_D4.opus
</region>

<region>
hivel=127
key=D5
loop_end=272825
loop_mode=loop_continuous
loop_start=78063
loop_xfade=23316
lovel=0
lpc=fMC6QJpwM8H5eEhBMOwiwYsZA0EDqcDA5DKGQHaqcMCxUY1AA5yEwHA2XEDZewzA/rKEvYBl0z/6VwTAiGP6Pz3fn7+RNAI/6lIevNF62D9B6xbAncg5QB3A9b8yQ5Y/
lpc_rms=-16.39
offset=176
sample=Alto_sustain_MF_D5.opus
</region>

<region>
hivel=127
key=E3
loop_end=254041
loop_mode=loop_continuous
loop_start=72688
loop_xfade=21711
lovel=0
lpc=5CLNQp1tasM+OTZDGpOvwr4Ib0JWDvjBz1V4QVz2ncGVBzZCUXICwo2k6z6n+Y3A3vtewTHxukG4nsbAnRFAQAZFKj+5rIE/NbtewHCaW0EfQanBzs4xQehAbcHl2j1B
lpc_rms=-19.14
offset=9406
sample=Alto_sustain_MF_E3.opus
</region>

<region>
hivel=127
key=E4
loop_end=268192
loop_mode=loop_continuous
loop_start=76737
loop_xfade=22920
lovel=0
lpc=CtE7QcHd7sGeAg9CIwX8wdIIwkHbv4fBacFUQUfBX8FQtVZBIrywwMdHf8AqZAhBY4kLwaJ33UDtxsXA7+raQLGa8sBv9/ZAfWOjwK665T6IDzRAaQXovzQwgD7ncBe+
lpc_rms=-22.43
sample=Alto_sustain_MF_E4.opus
</region>

<region>
hivel=127
key=E5
loop_end=250409
loop_mode=loop_continuous
loop_start=71649
loop_xfade=21400
lovel=0
lpc=u6YDQeZJhcG8PY9BVidiwSaZFUGiumzAuK+tP75Lk8CLGQZBjVPywJwDt0CQaN6/i31KwFB1wUD8f7jAI6miQC2CHsDqjwS9yXQUPHAHGUBHMjjAEXkwQCVGMsDnPBFA
lpc_rms=-15.02
offset=589
sample=Alto_sustain_MF_E5.opus
</region>

<region>
hivel=127
key=F#3
loop_end=275081
loop_mode=loop_continuous
loop_start=78709
loop_xfade=23509
lovel=0
lpc=Kb40QmNx48L/EspCl5gpwlN/vUEltMrBQFuoQbZt7cEOuSpCaPKywVVkLMH+fYBB547wwPVxAUGePIDBAk+IQWvjP8EOdyBB/LX6wNmceUBkqpQ/BEJBvOn5ccC4VwFA
lpc_rms=-16.25
offset=8293
sample=Alto_sustain_MF_F#3.opus
</region>

<region>
hivel=127
key=F#4
loop_end=266084
loop_mode=loop_continuous
loop_start=76134
loop_xfade=22740
lovel=0
lpc=4YQgQmvG+sIEcCRD9pXowpsvT0Jr4yXCPdqMQu5ZtMIoWpRCcky0wQRgj8F5wk5BYzk6QVY7l8Ea0AtAPiWzQe4uG8J16vpBbyFawDXbj8EjFbJBQHOAwaeX7UC4DN6/
lpc_rms=-11.79
offset=196
sample=Alto_sustain_MF_F#4.opus
</region>

<region>
hivel=127
key=F#5
loop_end=257191
loop_mode=loop_continuous
loop_start=73590
loop_xfade=21980
lovel=0
lpc=42h2QI9IxMDrvdRANXyjwM10UUCCfnm/8r2BPnb8Nb+pOLo/Rd8tv/qRsz4GiHo+y4iAv3HB4D+0yZe/s2qBPzgiCb17KQ4+q4WQvjunrT/pE8m/Fpm4P3cTsL6gENw+
lpc_rms=-21.70
offset=416
sample=Alto_sustain_MF_F#5.opus
</region>

<region>
hivel=127
key=F3
loop_end=271414
loop_mode=loop_continuous
loop_start=77660
loop_xfade=23195
lovel=0
lpc=DmAEQslzo8JRm5xCgiI6wrZTBkLV/N7B6xWrQbg808HZM/hBl0d/wYJHz0B0rWDBacE+QQbescB0ErNAEf8cwP2YgsA8mpxAebCov8fpJL/4KLxA0ObSwMQ/Q74UiwdA
lpc_rms=-20.63
offset=8289
sample=Alto_sustain_MF_F3.opus
</region>

<region>
hivel=127
key=F4
loop_end=277071
loop_mode=loop_continuous
loop_start=79278
loop_xfade=23679
lovel=0
lpc=DDISQu7D1sIUIvxCsneSwr7R0EHeh7TBIsoNQsDiLsJS/wlCYT5LwBqIccG8+jdAfWUKQddHsMCAcVzAKSNvQVoip8G1rC9BkWl6QB2EF8Fn5kVBP+tjwfoRB0GVP6u/
lpc_rms=-14.79
offset=771
sample=Alto_sustain_MF_F4.opus
</region>

<region>
hivel=127
key=F5
loop_end=266891
loop_mode=loop_continuous
loop_start=76365
loop_xfade=22809
lovel=0
lpc=vaDEQAJSPMEME0ZBhVscwa2p4EC2CETAHF0FP4iDG78elA9AbM6uv7Omjj3GqmI/DNEtwFC1jEBTxG7Ayng/QEL16L/jQNo/OXCmv/gZJUCh7VvAEmJgQF1nLMC1Kts/
lpc_rms=-16.96
offset=133
sample=Alto_sustain_MF_F5.opus
</region>

<region>
hivel=127
key=G#3
loop_end=262438
loop_mode=loop_continuous
loop_start=75091
loop_xfade=22428
lovel=0
lpc=XX8EQpPUp8JOHZtCFcQIwpYYf0F+AWrBdIxIQcKWnMHtJq9BxpbhvV+pgcF+hL9AOuM5QJEToz/tF0zAuEqYQOWI68BCGVI/twvLQJtJXMCfcRPAuBGcQFjUDsANAB2+
lpc_rms=-17.03
offset=1397
sample=Alto_sustain_MF_G#3.opus
</region>

<region>
hivel=127
key=G#4
loop_end=269663
loop_mode=loop_continuous
loop_start=77158
loop_xfade=23046
lovel=0
lpc=llLuQSm4qMLhm9dCtO2pwgduQEIUquTBCyXuQclLDcL5JtNBe7mYPst/mcGmZV5BK90swD9jxD88nQfBe16KQYBfkcE+KQBBC8eRQGJFPsG8VXRBDyZ4wUArG0HMqvG/
lpc_rms=-12.33
offset=680
sample=Alto_sustain_MF_G#4.opus
</region>

<region>
hivel=127
key=G#5
loop_end=268355
loop_mode=loop_continuous
loop_start=76784
loop_xfade=22934
lovel=0
lpc=XQVLQcirlsEuyIZB9WTdwPeg+T8op1VAgs2HwJcvwkDKJti/v5IDQJHH1r5vqV4/ZSwaP9lIO0ASWjLA9BtkQHnUKUAwwJjALjGiQAUylL9a848/NlpTQPJah8CftapA
lpc_rms=-16.83
sample=Alto_sustain_MF_G#5.opus
</region>

<region>
hivel=127
key=G3
loop_end=276229
loop_mode=loop_continuous
loop_start=79037
loop_xfade=23607
lovel=0
lpc=olRaQi9qEsNKURBDW0KSwii2MkIKXCjCVj7jQR0FAcKu2iFCL+J0wVpdLMG6B2dBdZ2QweSKr0GFJpDBDHa2QQTJ4sFLBD9BozWWQGWy3cCtFS5B4FbXwEowi8D8hGpA
lpc_rms=-14.01
offset=2503
sample=Alto_sustain_MF_G3.opus
</region>

<region>
hivel=127
key=G4
loop_end=276635
loop_mode=loop_continuous
loop_start=79153
loop_xfade=23642
lovel=0
lpc=4QMGQnztzsLluQ5DMB4Bw0dOykJjTKXCU6yRQs5QisKCw19CCO+VwcDgb8FUgdlBYpwKwl8oLEKUeE7CWD5mQiUSR8IT/dtBVXbgwKPeEUBRjYzAt0m7QN3mxsDTlTRA
lpc_rms=-11.91
offset=1257
sample=Alto_sustain_MF_G4.opus
</region>

<region>
hivel=127
key=G5
loop_end=264258
loop_mode=loop_continuous
loop_start=75612
loop_xfade=22584
lovel=0
lpc=ZX9lQfPT0MH0b8BBfZ5Vweh5E0F6OtbAheDZQEtD7MBLOBpBybuEwOyAGb844Q1A+qkdP0HbA79Wcly952iYQJlgs8BwIbRAVspywJspjUAlOZzAeCoUQRlsGMG4x9FA
lpc_rms=-15.92
sample=Alto_sustain_MF_G5.opus
</region>
</group>

<group>
amp_veltrack=0
ampeg_attack=2.5
ampeg_release=0.35
group_label=Sustain_85-127
lpc_hicc1=127
lpc_locc1=85
volume=-5

<region>
hivel=127
key=A#3
loop_end=271185
loop_mode=loop_continuous
loop_start=77594
loop_xfade=23176
lovel=0
lpc=P4aGQddELMIrBUJC224ZwjNu5kEkeYvBiZyFQATEjb59+ZI+pyWvQPAwAsFq03JAKizkPgbFsT5mymzAMaC1QDXMtMAixRa9avb6QAdcE8ElCLZAQ71ZwPffNEDNRoa/
lpc_rms=-12.35
offset=367
sample=Alto_sustain_FF_A#3.opus
</region>

<region>
hivel=127
key=A#4
loop_end=276308
loop_mode=loop_continuous
loop_start=79060
loop_xfade=23614
lovel=0
lpc=hsopQc3U08FkJ/1B5EDfwaOnrUEvs4zBLKdmQQ1qHcE7LcpASBZHwH1y3z9BSCDAddeLQD87kMCyeFk/P9HuP5332b/ivi5AcTB+wKypcUCzLEfA2D8aQGy5/r8U9Yc/
lpc_rms=-6.55
offset=161
sample=Alto_sustain_FF_A#4.opus
</region>

<region>
hivel=127
key=A3
loop_end=275599
loop_mode=loop_continuous
loop_start=78857
loop_xfade=23553
lovel=0
lpc=pbBcQT0zCcJakhpC7sAFwgSx8UF1pMfB93JsQbcrEcEEVLRAJsCKQNM3VsGQU3RBiHhUwT2rQEFANBnBEs2qQPTUnsDlY5VASLCJPxpr3sAoQdpAtMqJwIiGH0DPOR2/
lpc_rms=-13.48
offset=1265
sample=Alto_sustain_FF_A3.opus
</region>

<region>
hivel=127
key=A4
loop_end=270838
loop_mode=loop_continuous
loop_start=77495
loop_xfade=23146
lovel=0
lpc=rLdsQdLhHsJFaElCsP86wlMyIkJyrhDCJwb8QU6d3MHHHbZBkedLwTZSYEBHmsI/Q2t3v8I/w7/fNCY/TwnyP3x6K8CFXhtAGcOHv8W3hcB9x/1AVT60wKwW+T8NvDW+
lpc_rms=-8.00
sample=Alto_sustain_FF_A4.opus
</region>

<region>
hikey=B5
hivel=127
lokey=A5
loop_end=246432
loop_mode=loop_continuous
loop_start=70511
loop_xfade=21060
lovel=0
lpc=0oQmQXq/MMFAsSVB0ZyEwNd2oUDd/9m/zyxxQA9cyr5IRcs/xiAWQF8pxz0jJPE/3P5HP2nK8j9zQXw/1ubWP81Opz4d1xhAwREbP9jV9D+gQ6489jdjQCjuC8Dh9KNA
lpc_rms=-18.32
pitch_keycenter=A5
sample=Alto_sustain_FF_A5.opus
</region>

<region>
hivel=127
key=B3
loop_end=281233
loop_mode=loop_continuous
loop_start=80469
loop_xfade=24034
lovel=0
lpc=gvALQYbcocHdKq9BV3mVwaCvgUEqZUPBQt7IQOF4MMB+lcC+wR2hQNwIycAt7D5AKsoGP3gsDcBmQxZA6jPIvwuDMr6lTqE/UW1Sv6O+Uj/lAwTAbkhCQHaH+b9EWhE/
lpc_rms=-15.80
offset=716
sample=Alto_sustain_FF_B3.opus
</region>

<region>
hivel=127
key=B4
loop_end=282570
loop_mode=loop_continuous
loop_start=80852
loop_xfade=24149
lovel=0
lpc=EcPCQBomWcGqz3RBcTtxwWZie0EZbHXBYsxYQc+TLMHD4fNAfzeEwFolpj+H978/bilOwFNKeECYOqLA4dC8QEFHwcAc/cRAgyaxwCyukEC6SnzAoHN9QKLsJ8Bf3k8/
lpc_rms=-9.48
offset=17162
sample=Alto_sustain_FF_B4.opus
</region>

<region>
hivel=127
key=C#4
loop_end=275363
loop_mode=loop_continuous
loop_start=78789
loop_xfade=23533
lovel=0
lpc=KLVNQU5R+8FXHxBCqqjxwQkHsEES4FDBa1mhQBmjKMAbMsw9kWXAQD/CEcHW1ANBklrHwKh/wEBLjNjA+LfDQJA/vcAfUUxAOY36P4VRbMCkS/E/dY2Uv0QTF0BdnJy/
lpc_rms=-12.64
offset=546
sample=Alto_sustain_FF_C#4.opus
</region>

<region>
hivel=127
key=C#5
loop_end=274943
loop_mode=loop_continuous
loop_start=78669
loop_xfade=23497
lovel=0
lpc=V2qGQNp/D8E9kS5BsbEvwdsdK0HauxrBPTjoQB9lisAvaAtAvRuBv5BJAj8iQaS8TaIqPu/iJr/c7vk+ze/QPraiab+3wOU/N3cZwGCOH0CArinAJ9tHQN4KJsBwyZk/
lpc_rms=-13.47
offset=16989
sample=Alto_sustain_FF_C#5.opus
</region>

<region>
hivel=127
key=C4
loop_end=269661
loop_mode=loop_continuous
loop_start=77158
loop_xfade=23045
lovel=0
lpc=DYeVQY51OcIgwURCYbwIwhjDrEHuvUPBMX2KQMvi1MArNDBBlXfCwN83Zz8Cfau/+s7zP8SYWj8XHtW/Tz1GvZWfPL9iakY+vJIyQFVal79jLDfANSPLP+bQ4z+5yIy/
lpc_rms=-14.43
offset=270
sample=Alto_sustain_FF_C4.opus
</region>

<region>
hivel=127
key=C5
loop_end=264778
loop_mode=loop_continuous
loop_start=75761
loop_xfade=22628
lovel=0
lpc=BtauQCFWR8FskmFBg+lIwR5eNUGFkBvBoDnWQD0bN8BxpPY+rWQRP57a0b8b00VA88pXwIAUK0D9Zi7AFT9TQGByOMA8ax1AzsjAvzmxiT5qMTk8KAG1PdkVw70NIi0+
lpc_rms=-10.66
offset=245
sample=Alto_sustain_FF_C5.opus
</region>

<region>
hivel=127
key=D#3
loop_end=271100
loop_mode=loop_continuous
loop_start=77570
loop_xfade=23168
lovel=0
lpc=0OWJQZUpK8Jz4T5C+14ewtrpBEIOdefBDeGoQQMNgMFvhEBBiw6Qv5vHnsCmFGNAnlIYwDmChkB/B3zANcKcvrtgO0B2XXDAjxKfQG7e88AG5QtB/8rawP57Y0BbUie/
lpc_rms=-13.52
offset=6815
sample=Alto_sustain_FF_D#3.opus
</region>

<region>
hivel=127
key=D#4
loop_end=272679
loop_mode=loop_continuous
loop_start=78021
loop_xfade=23303
lovel=0
lpc=D0IXQdLZv8Fyve1B+ULcwU6BtEFvb3jBAHDFQB2WJz8IYZXAsLYDQfWOGcFIBORAHlzyv5RjSb7vmpC/36b1P7G2LMCqLIJA0+GHwOXGIkB+4Kq/oYeCP8szTr+WbQg/
lpc_rms=-15.50
offset=137
sample=Alto_sustain_FF_D#4.opus
</region>

<region>
hivel=127
key=D#5
loop_end=255051
loop_mode=loop_continuous
loop_start=72977
loop_xfade=21797
lovel=0
lpc=HeJsQIeF58AFJQJBRujhwITHz0CNNsHAJoqeQHMnTsDfGsg/QG4uvww93z1urqo/C0UQwD57NECgITDA7GEkQAgj078Puag/12bJv8kJ3D9Qpva/JKIIQKALyr/6m08/
lpc_rms=-13.70
offset=202
sample=Alto_sustain_FF_D#5.opus
</region>

<region>
hivel=127
key=D4
loop_end=284539
loop_mode=loop_continuous
loop_start=81415
loop_xfade=24317
lovel=0
lpc=U5MrQcC51MG2pghC4JELwtCNBEI6tObBmZWlQXpTWcG08ApB6It+wDUrmT+r0ADAaNqEQLO1bcDPnLe9QKI2QPjVtsDLLwZBij4GwQ4M1UCFYazAQd+cQBqoFsBjawk/
lpc_rms=-13.58
offset=194
sample=Alto_sustain_FF_D4.opus
</region>

<region>
hivel=127
key=D5
loop_end=269496
loop_mode=loop_continuous
loop_start=77111
loop_xfade=23031
lovel=0
lpc=AY9WQHjlvsCG3cFA4rmvwA7dwkD3gdPAveirQJYCT8CvytU/obE0v/sMaD4IJ0c/4pr7v9KCN0Co8EnATOs4QCm8PcC5slNAnEQYwKg1uj8fUla/mTkmP5maXD5Yz7K+
lpc_rms=-15.92
sample=Alto_sustain_FF_D5.opus
</region>

<region>
hivel=127
key=E3
loop_end=269635
loop_mode=loop_continuous
loop_start=77150
loop_xfade=23043
lovel=0
lpc=mqqeQXohUMLOAXtCRe1WwtqMJEIQO+3By7CKQTBWHMFoxtFA2hZYP5zUAMGfOv5AzfojwCHIf74l0RfAT4wKQDOphkDZIMnAVRMBQPTrGD9aE+a/8ReXQKNLu8D8EzNA
lpc_rms=-12.83
offset=3811
sample=Alto_sustain_FF_E3.opus
</region>

<region>
hivel=127
key=E4
loop_end=272864
loop_mode=loop_continuous
loop_start=78074
loop_xfade=23319
lovel=0
lpc=6PriQB0+gsHf76BB1omgwViRlUFgBXzB0gwuQZom1sDNFVtAkYIFPgwryr/niqE/dGqRvTxGUr0ARHS/eJRQP5Lo/L6BbcA/jn0DwKaVGEDIwQTAkB39P7Y7d7/cg649
lpc_rms=-16.74
offset=110
sample=Alto_sustain_FF_E4.opus
</region>

<region>
hivel=127
key=E5
loop_end=261824
loop_mode=loop_continuous
loop_start=74915
loop_xfade=22376
lovel=0
lpc=zs2pQBy+KsFrrTVBGc8ZwbEwEkGg5hjBka0TQSkJ6sDPK6ZAA7g9wE0COz+NnwBAyC5cwLp7j0AL5JnAc0a9QMO46MBHzNZA6nF2wB102z/HHAHAdfVaQEa0JsBJtKA/
lpc_rms=-10.54
sample=Alto_sustain_FF_E5.opus
</region>

<region>
hivel=127
key=F#3
loop_end=272201
loop_mode=loop_continuous
loop_start=77885
loop_xfade=23263
lovel=0
lpc=MTDBQUqVf8Kdrp1C/s6RwuEvc0Kftj3CNX/3QZlahsGRYfNAv3nCQFFtgsHO1YFBmSbvwE7X+L8IhVFAvcHXv7b5UkBZ0TfAqxsCPfZA8j0Hhp0//3H6v/2Xkj4n31Q/
lpc_rms=-13.47
offset=4730
sample=Alto_sustain_FF_F#3.opus
</region>

<region>
hivel=127
key=F#4
loop_end=275478
loop_mode=loop_continuous
loop_start=78822
loop_xfade=23543
lovel=0
lpc=sok5QaAZ+MEp+CFC0R0owiTzLULjPSbCA4EIQm886sH019hBSeimwdTFcUHPM2jBJ299QV6CZcE1VC5B0hEXweJK5UAQbo6/S8FjwMvybUAprC/Ar5o3QHAzxL8fyzw9
lpc_rms=-10.64
offset=310
sample=Alto_sustain_FF_F#4.opus
</region>

<region>
hivel=127
key=F#5
loop_end=275451
loop_mode=loop_continuous
loop_start=78815
loop_xfade=23540
lovel=0
lpc=yiybQPpBD8GArw5Bl6fJwGIgkEClSw/AJcFnPxrrtT6FDyy/K6n4PQu7LT9bDaw+dg/evxSpSUBdyR/ANOe6P2AuKb+ZkUc/6VFevsgMmD+wmhPA/WlqQPcpWsCvDfM/
lpc_rms=-14.02
sample=Alto_sustain_FF_F#5.opus
</region>

<region>
hivel=127
key=F3
loop_end=284360
loop_mode=loop_continuous
loop_start=81364
loop_xfade=24302
lovel=0
lpc=enjlQWzypcKhqdxCXhnRwveaqEL60WrCzp8OQgdbmMEIbcVA5KszQTEVusGSabRBZERQwbV06T3AeIU/A7HDQEHZr8AokBRAEv45wM/Zj0DKF5vAcmamQCaptcDtTDBA
lpc_rms=-14.02
offset=4983
sample=Alto_sustain_FF_F3.opus
</region>

<region>
hivel=127
key=F4
loop_end=278020
loop_mode=loop_continuous
loop_start=79550
loop_xfade=23760
lovel=0
lpc=j72LQQnNR8JpbYdCPFiJwpsvgkKwClrClVMTQjXCx8HuNpxBKho1weY/sUCLHgDBFQJSQS6rT8GTI/dAyVWEvx0k4sA0t15BWQlIwcDXnkB+4qM+VIAiwBF+NEAh/YC/
lpc_rms=-9.94
offset=752
sample=Alto_sustain_FF_F4.opus
</region>

<region>
hivel=127
key=F5
loop_end=281771
loop_mode=loop_continuous
loop_start=80623
loop_xfade=24080
lovel=0
lpc=W8WLQKWN+MC7DwRB9ZW/wJJ8kECxCX7Ah8JhQPXsB8BIm7E/wf0svwXsoL5P12k/VRjbvtX0bz4Uizu/ID77PwFdAcCOOi1AY5YpwB5BQUC+UC7ArhI2QDW0/b8tXXk/
lpc_rms=-14.25
offset=669
sample=Alto_sustain_FF_F5.opus
</region>

<region>
hivel=127
key=G#3
loop_end=273331
loop_mode=loop_continuous
loop_start=78208
loop_xfade=23359
lovel=0
lpc=DrZdQeyQAsI+yQlCBbTUwVIfl0F0pDrBDVecQJCOtb/Jv7m/O/nLQB0B88AIzdVAC1GywBZqekB/anfAWhajQBMoo8CkpSs/7UyVQA7yj8DtlgJANNYwv1YFGz/5rZ++
lpc_rms=-14.09
offset=4146
sample=Alto_sustain_FF_G#3.opus
</region>

<region>
hivel=127
key=G#4
loop_end=268817
loop_mode=loop_continuous
loop_start=76916
loop_xfade=22973
lovel=0
lpc=Rl8GQQ8BlcGpHZpBYPeBwXuMZEGMuibB/AWUQD4IWb/GVynAZwPfQE4l8MBZPTpAwNwJQFzSdsCGSWZA02mFwMWpm0DEFzfAMoTOP8sEpr//Gx+/iaS4PzmNSL9oHNc+
lpc_rms=-10.94
offset=319
sample=Alto_sustain_FF_G#4.opus
</region>

<region>
hivel=127
key=G#5
loop_end=260700
loop_mode=loop_continuous
loop_start=74594
loop_xfade=22280
lovel=0
lpc=Tm4YQbCecsFvxndBkm8bwalV3kB6VFfAtwXkPxSi+D8Li1e+bgShvmkfuj/sMsA+mdz4vdX+LUAoTyrAWIVTQKU+Cj8zq3G/qr/SP8fXzz0gIjW/aDucQDnRn8Advo5A
lpc_rms=-14.43
sample=Alto_sustain_FF_G#5.opus
</region>

<region>
hivel=127
key=G3
loop_end=278257
loop_mode=loop_continuous
loop_start=79617
loop_xfade=23780
lovel=0
lpc=TIrEQf2egcLvRplCIPiBwoMBSkJScgzCQIqWQcfxHsFC3FlAvDDkQMBgK8GLqA5BsWK+wHGhPUCuClTA9LEAQWhTX8F7+EBBl8Vtvxxi9MDVgelAAK+/wLeT0EC7T0jA
lpc_rms=-12.45
offset=3199
sample=Alto_sustain_FF_G3.opus
</region>

<region>
hivel=127
key=G4
loop_end=278622
loop_mode=loop_continuous
loop_start=79722
loop_xfade=23811
lovel=0
lpc=muhIQXhdBMJFUiZC8McZwrgX/EHwk7DBk7k6QSpFxsBDm4hAJlWmv0FBDEA/KvXABU0xQSnREcGVowdAnECjQNbbHsHePkRBvi4SwRgRZ0DEAru+1GHoPsFxgL95YNc+
lpc_rms=-9.58
offset=5947
sample=Alto_sustain_FF_G4.opus
</region>

<region>
hivel=127
key=G5
loop_end=267935
loop_mode=loop_continuous
loop_start=76664
loop_xfade=22898
lovel=0
lpc=JKw5QSICksFpcoBB970twTBkBUEXaJXAdM7ZQCb1usBwPINA3ePevzrLl74KYF5A9qkrP3JmSb/bwFe/OkEuQN0gZMBDlaNACbSgv36nP0AUIKDAVtS1QDajocDS0KVA
lpc_rms=-15.29
sample=Alto_sustain_FF_G5.opus
</region>
</group>